<?xml version="1.0" encoding="UTF-8"?>
<svg id="Layer_1" xmlns="http://www.w3.org/2000/svg" viewBox="0 0 369.18 71.03">
  <defs>
    <style>
      .cls-1 {
        fill: #95bee5;
        stroke-width: 3px;
      }

      .cls-1, .cls-2 {
        stroke: #231f20;
      }

      .cls-2 {
        stroke-miterlimit: 10;
        stroke-width: 6px;
      }

      .cls-2, .cls-3 {
        fill: #fff;
      }
    </style>
  </defs>
  <g id="path_logo">
    <path class="cls-2" d="M343.65,9.3h-15.9v.06c-.48-.07-1-.1-1.59-.11-5.27,0-6.69,2.21-8.57,5.3l-11.88,19.71-11.34-19.62c-2.06-3.44-3.75-5.39-8.67-5.39-1.73,0-3.06.24-4.02.67h-7.64c-.41-.03-.83-.05-1.29-.05h-21.43c-4.1,0-5.71,1.59-5.71,5.39.31,1.51-.4,28.5,0,42.35h-11.32c0-11.24.8-46.65-.81-46.5-3.48-3.8-12.83-1.92-11.16,4.68v41.69h-13.38c9.2-11.27,8.15-35.61-4.57-42.75-8.17-6.11-25.18-6.33-35.54-4.59-4.91,1.06-5.71,3-5.71,6.8v41.03h-11.22c.05-13.11.71-47.33-.83-46.86-3.46-3.8-12.3-1.79-10.71,4.68v31.36l-26.07-32.77c-2.42-5.56-14.2-7.82-14.47-.44.3,1.44-.4,29.39,0,43.61h-7.37l-17-42.1c-2.01-8.4-12.46-8.42-14.55-.09-.1.85-12.58,29.24-17.76,42.26h-4.88c3.38-7.33,1.64-16.7-7.36-21.77-6.25-3.88-14.65-6.1-14.65-11.56,1.51-10.08,13.01-3.25,17.59-2.04,12.04-4.4.59-14.29-10.71-13.52-10.71,0-18.93,6.45-18.93,16.17,0,10.95,10.62,15.02,16.34,18.02,8.85,2.97,10.55,14.75-.62,15.01-5.98,0-8.76-4.33-12.06-4.33-2.95,0-4.82,3.27-4.83,5.74,1.07,6.8,11.2,8.38,17.23,8.66,1.96.1,3.8-.05,5.5-.43h20.49c7.87.61,8.39-10.57,11.07-15.48h20.72c2.49,4.69,3.35,16.32,10.71,15.47.49,0,.93-.02,1.35-.06h14.12c3.87.66,8.41-1.74,7.21-6.57v-31.71l27.14,33.57c1.99,3.65,6.94,5.74,10.24,4.68h23.02c3.63.54,8.01.46,12.36-.02h42.28c1.05.27,2.19.3,3.26.12h21.01c3.83.36,8.03-1.92,6.87-6.64v-17.23h12.59c3.84.1,6.31-.93,6.34-5.3-.03-4.34-2.55-5.3-6.34-5.21h-12.59v-12.64h15.19c.85.04,1.65,0,2.35-.11h8.48c5.41,9.04,14.67,22.78,15.69,24.94v15.63c-.24,4.4,1.15,6.55,6.07,6.54,5.32-.15,6.05-2.17,5.98-6.63v-15.63l16.52-25.47h16.57c5.27,8.89,21.83,8.49,21.66-4.81-.26-12.65-18.34-15.93-22.43-5.72ZM61.05,42.38l6.69-17.23,6.61,17.23h-13.3ZM202.93,38.58c-.7,20.67-18.77,19.19-27.86,18.55V19.76c13.02-2.17,28.54,1.81,27.86,18.82Z"/>
    <path class="cls-3" d="M343.65,9.3h-15.9v.06c-.48-.07-1-.1-1.59-.11-5.27,0-6.69,2.21-8.57,5.3l-11.88,19.71-11.34-19.62c-2.06-3.44-3.75-5.39-8.67-5.39-1.73,0-3.06.24-4.02.67h-7.64c-.41-.03-.83-.05-1.29-.05h-21.43c-4.1,0-5.71,1.59-5.71,5.39.31,1.51-.4,28.5,0,42.35h-11.32c0-11.24.8-46.65-.81-46.5-3.48-3.8-12.83-1.92-11.16,4.68v41.69h-13.38c9.2-11.27,8.15-35.61-4.57-42.75-8.17-6.11-25.18-6.33-35.54-4.59-4.91,1.06-5.71,3-5.71,6.8v41.03h-11.22c.05-13.11.71-47.33-.83-46.86-3.46-3.8-12.3-1.79-10.71,4.68v31.36l-26.07-32.77c-2.42-5.56-14.2-7.82-14.47-.44.3,1.44-.4,29.39,0,43.61h-7.37l-17-42.1c-2.01-8.4-12.46-8.42-14.55-.09-.1.85-12.58,29.24-17.76,42.26h-4.88c3.38-7.33,1.64-16.7-7.36-21.77-6.25-3.88-14.65-6.1-14.65-11.56,1.51-10.08,13.01-3.25,17.59-2.04,12.04-4.4.59-14.29-10.71-13.52-10.71,0-18.93,6.45-18.93,16.17,0,10.95,10.62,15.02,16.34,18.02,8.85,2.97,10.55,14.75-.62,15.01-5.98,0-8.76-4.33-12.06-4.33-2.95,0-4.82,3.27-4.83,5.74,1.07,6.8,11.2,8.38,17.23,8.66,1.96.1,3.8-.05,5.5-.43h20.49c7.87.61,8.39-10.57,11.07-15.48h20.72c2.49,4.69,3.35,16.32,10.71,15.47.49,0,.93-.02,1.35-.06h14.12c3.87.66,8.41-1.74,7.21-6.57v-31.71l27.14,33.57c1.99,3.65,6.94,5.74,10.24,4.68h23.02c3.63.54,8.01.46,12.36-.02h42.28c1.05.27,2.19.3,3.26.12h21.01c3.83.36,8.03-1.92,6.87-6.64v-17.23h12.59c3.84.1,6.31-.93,6.34-5.3-.03-4.34-2.55-5.3-6.34-5.21h-12.59v-12.64h15.19c.85.04,1.65,0,2.35-.11h8.48c5.41,9.04,14.67,22.78,15.69,24.94v15.63c-.24,4.4,1.15,6.55,6.07,6.54,5.32-.15,6.05-2.17,5.98-6.63v-15.63l16.52-25.47h16.57c5.27,8.89,21.83,8.49,21.66-4.81-.26-12.65-18.34-15.93-22.43-5.72ZM61.05,42.38l6.69-17.23,6.61,17.23h-13.3ZM202.93,38.58c-.7,20.67-18.77,19.19-27.86,18.55V19.76c13.02-2.17,28.54,1.81,27.86,18.82Z"/>
    <ellipse class="cls-1" cx="354.72" cy="14.32" rx="12.96" ry="12.82"/>
  </g>
</svg>